P2
24 7
255
0 0 0 0 0 0 0 0 0 0 0 0 0 0 0 0 0 0 0 0 0 0 0 0 0 0 0 200 200 200 0 0 0 50 50 50 0 0 0 100 100 100 0 0 0 0 0 0 0 0 0 200 0 0 0 0 0 0 50 0 0 0 0 0 100 0 0 0 0 0 0 0 0 0 0 200 200 200 0 0 0 0 50 0 0 0 0 0 100 0 0 0 0 0 0 0 0 0 0 0 0 200 0 0 0 0 50 0 0 0 0 0 100 0 0 0 0 0 0 0 0 0 0 200 200 200 0 255 0 50 50 50 0 255 0 100 100 100 0 255 0 0 0 0 0 0 0 0 0 0 0 0 0 0 0 0 0 0 0 0 0 0 0 0 0 0 0 0
